OpenSim_Sub01_CSStiffKnee_LCS.mot
version=1
nRows=58
nColumns=11
inDegrees=no
endheader
time	Bot_Shank	2nd_Bot_Shank	2nd_Top_Shank	Top_Shank	Bot_Thigh	Med_Thigh	Top_Thigh	BNOx	BNOy	BNOZ
40.35000000	9348.56286713	9752.69873995	10398.24712611	10395.97879679	13297.63401437	14500.60712972	15280.69920939	187.52434678	-82.81345056	-168.64187651
40.36000000	9353.83910865	9751.33229052	10398.28341023	10396.65678849	13301.42682424	14507.62203903	15278.81875100	186.25652833	-81.67335848	-149.09229334
40.37000000	9359.05935183	9750.70729709	10398.63759773	10397.40675150	13304.05990875	14514.00543332	15278.40685770	185.02968887	-80.58174519	-125.75659103
40.38000000	9364.35615091	9750.83548112	10399.40387893	10398.16577812	13304.97108012	14519.18386132	15279.73340743	183.91182999	-79.61960880	-102.01526743
40.39000000	9369.86206016	9751.72856406	10400.67644413	10398.87096066	13303.59815055	14522.58387174	15283.06827810	182.97095333	-78.86794744	-81.24882040
40.40000000	9375.67601237	9753.38089370	10402.52736117	10399.46586223	13299.46456581	14523.67333817	15288.57229681	182.26812446	-78.39805556	-66.43096855
40.41000000	9381.64845689	9755.65841579	10404.86519889	10399.94186917	13292.72665703	14522.22555077	15295.60033689	181.81314744	-78.20951161	-57.52907747
40.42000000	9387.51847202	9758.36952588	10407.52524538	10400.31180233	13283.82441643	14518.15068831	15303.14604081	181.59285077	-78.26975069	-53.16305647
40.43000000	9393.02461072	9761.32234805	10410.34244309	10400.58858369	13273.19917429	14511.35957524	15310.20134713	181.59395456	-78.54605629	-51.94645892
40.44000000	9397.90542596	9764.32500640	10413.15173444	10400.78513521	13261.29226086	14501.76303605	15315.75819439	181.80317891	-79.00571189	-52.49283820
40.45000000	9401.89947071	9767.18562501	10415.78806188	10400.91437884	13248.54500639	14489.27189520	15318.80852114	182.20724393	-79.61600098	-53.41574769
40.46000000	9404.74529794	9769.71232798	10418.08636783	10400.98923655	13235.39874113	14473.79697716	15318.34426594	182.79286975	-80.34420704	-53.32874076
40.47000000	9406.18146061	9771.71323938	10419.88159475	10401.02263030	13222.29479536	14455.24910638	15313.35736732	183.54677646	-81.15761356	-50.84537079
40.48000000	9405.94651170	9772.99648331	10421.00868506	10401.02748207	13209.67449932	14433.53910735	15302.83976386	184.45568418	-82.02350402	-44.57919116
40.49000000	9403.77900417	9773.37018386	10421.30258120	10401.01671380	13197.97918327	14408.57780453	15285.78339408	185.50631303	-82.90916192	-33.14375523
40.50000000	9399.41749099	9772.64246511	10420.59822561	10401.00324747	13187.65017747	14380.27602239	15261.18019655	186.68538312	-83.78187072	-15.15261639
40.51000000	9392.63959035	9770.64193470	10418.74980173	10400.99929150	13179.07194289	14348.60927930	15228.17302198	187.97918106	-84.60861864	10.61264488
40.52000000	9383.80745185	9767.50369491	10415.89939531	10401.00637759	13171.77800737	14314.52110629	15188.16281420	189.36750725	-85.35197557	42.85626488
40.53000000	9373.73319855	9763.59878819	10412.41071992	10401.01781853	13164.64684877	14279.70021240	15144.28880162	190.82516897	-85.97111018	78.34705664
40.54000000	9363.24052840	9759.30432617	10408.65319016	10401.02671564	13156.54009478	14245.85447526	15099.73492735	192.32684504	-86.42510364	113.80404740
40.55000000	9353.15313933	9754.99742051	10404.99622060	10401.02617029	13146.31937312	14214.69177248	15057.68513451	193.84721430	-86.67303713	145.94626440
40.56000000	9344.29472927	9751.05518285	10401.80922586	10401.00928381	13132.84631146	14187.91998169	15021.32336621	195.36095559	-86.67399182	171.49273486
40.57000000	9337.41439516	9747.82449492	10399.43282136	10400.96969527	13115.10876128	14167.09876347	14993.57374991	196.84471774	-86.39145035	187.44860317
40.58000000	9332.49108199	9745.34015651	10397.91031118	10400.90659496	13093.39765981	14152.25764263	14974.67817628	198.29548736	-85.83433426	193.77277694
40.59000000	9329.04938637	9743.45285576	10397.10960165	10400.82244808	13068.77269493	14142.52344602	14963.29616018	199.72224920	-85.03837158	192.16672559
40.60000000	9326.60803255	9742.01090122	10396.89633210	10400.71976214	13042.30349050	14137.01133323	14958.06676452	201.13414308	-84.03963686	184.35444088
40.61000000	9324.68574479	9740.86260144	10397.13614187	10400.60104470	13015.05967039	14134.83646387	14957.62905221	202.54030884	-82.87420462	172.05991459
40.62000000	9322.80124733	9739.85626496	10397.69467030	10400.46880327	12988.11085847	14135.11399754	14960.62208616	203.94988630	-81.57814936	157.00713848
40.63000000	9320.47326442	9738.84020032	10398.43755671	10400.32554538	12962.52667861	14136.95909385	14965.68492927	205.37201531	-80.18754563	140.92010432
40.64000000	9317.22052031	9737.66271608	10399.23044044	10400.17377857	12939.37675466	14139.48691241	14971.45664446	206.81583568	-78.73846794	125.52280388
40.65000000	9312.56173925	9736.17212076	10399.93896083	10400.01601036	12919.73071051	14141.81261281	14976.57629464	208.29048724	-77.26699081	112.53922891
40.66000000	9306.12690014	9734.25028598	10400.44890754	10399.85500322	12904.45635974	14143.18348477	14979.88713028	209.80173681	-75.80600309	103.40703159
40.67000000	9298.14773366	9731.96061845	10400.75505885	10399.69489852	12893.32996881	14143.56148053	14981.33680739	211.33710720	-74.37116298	98.01511641
40.68000000	9289.05848755	9729.42761980	10400.88887275	10399.54030170	12885.76044855	14143.14906902	14981.24466500	212.87798131	-72.97232975	95.73116338
40.69000000	9279.29356213	9726.77583768	10400.88183482	10399.39581852	12881.15643300	14142.14890038	14979.93032220	214.40573740	-71.61935834	95.92245971
40.70000000	9269.28735774	9724.12981974	10400.76543067	10399.26605478	12878.92655617	14140.76362480	14977.71339810	215.90175374	-70.32210367	97.95629263
40.71000000	9259.47427473	9721.61411364	10400.57114592	10399.15561626	12878.47945208	14139.19589242	14974.91351182	217.34740859	-69.09042065	101.19994935
40.72000000	9250.28871341	9719.35326704	10400.33046615	10399.06910873	12879.22375476	14137.64835342	14971.85028245	218.72408023	-67.93416421	105.02071710
40.73000000	9242.16507414	9717.47182757	10400.07487699	10399.01113799	12880.56809822	14136.32365795	14968.84332912	220.01314691	-66.86318928	108.78588310
40.74000000	9235.50687918	9716.08420558	10399.83406428	10398.98581215	12881.95316749	14135.40834772	14966.19303470	221.19742390	-65.88647202	111.90392591
40.75000000	9230.39887770	9715.20015754	10399.61913412	10398.99210183	12883.15052975	14134.92266684	14964.00119481	222.27456145	-65.00391685	114.20856765
40.76000000	9226.73775981	9714.76769975	10399.43023149	10399.02594673	12884.12695494	14134.78875278	14962.25244919	223.25096166	-64.21007630	115.78440132
40.77000000	9224.41778498	9714.73405056	10399.26735972	10399.08324743	12884.85173594	14134.92747500	14960.92992336	224.13313972	-63.49943374	116.71926237
40.78000000	9223.33321270	9715.04642828	10399.13052213	10399.15990446	12885.29416564	14135.25970296	14960.01674286	224.92761087	-62.86647253	117.10098628
40.79000000	9223.37830243	9715.65205127	10399.01972205	10399.25181838	12885.42353693	14135.70630610	14959.49603323	225.64089030	-62.30567605	117.01740851
40.80000000	9224.44731366	9716.49813783	10398.93496280	10399.35488975	12885.20914271	14136.18815390	14959.35091997	226.27949323	-61.81152765	116.55636451
40.81000000	9226.43450586	9717.53190632	10398.87624771	10399.46501912	12884.62027586	14136.62611579	14959.56452864	226.84993486	-61.37851070	115.80568977
40.82000000	9229.23413851	9718.70057505	10398.84358011	10399.57810703	12883.62622927	14136.94106124	14960.11998474	227.35873042	-61.00110857	114.85321973
40.83000000	9232.74047109	9719.95136236	10398.83696330	10399.69005405	12882.19629582	14137.05385971	14961.00041383	227.81239511	-60.67380463	113.78678987
40.84000000	9236.84776307	9721.23148659	10398.85640063	10399.79676072	12880.29976842	14136.88538065	14962.18894141	228.21744415	-60.39108224	112.69423565
40.85000000	9241.45027394	9722.48816606	10398.90189542	10399.89412759	12877.90593995	14136.35649352	14963.66869303	228.58039274	-60.14742477	111.66339253
40.86000000	9246.44226316	9723.66861910	10398.97345098	10399.97805523	12874.98410330	14135.38806777	14965.42279421	228.90775609	-59.93731558	110.78209598
40.87000000	9251.71929787	9724.71868527	10399.07064858	10400.04475374	12871.53437991	14133.92272510	14967.42522281	229.20554299	-59.75562599	110.13117695
40.88000000	9257.19044479	9725.56997014	10399.18871210	10400.09362906	12867.87515330	14132.12764893	14969.55551950	229.47453397	-59.60123238	109.71915446
40.89000000	9262.77273470	9726.14568200	10399.32029488	10400.12597250	12864.51256456	14130.30250205	14971.63751216	229.71242520	-59.47537387	109.51188740
40.90000000	9268.38330133	9726.36892060	10399.45801697	10400.14309973	12861.95518149	14128.74865953	14973.49430854	229.91687299	-59.37932014	109.47468326
40.91000000	9273.93927837	9726.16278570	10399.59449848	10400.14632640	12860.71157192	14127.76749645	14974.94901641	230.08553362	-59.31434087	109.57284955
40.92000000	9279.35779956	9725.45037704	10399.72235947	10400.13696820	12861.29030366	14127.66038787	14975.82474354	230.21606340	-59.28170574	109.77169378
